# xmcd
#
# Track frame offsets: 
#        150
#        11250
#        48967
#        85794
#        119601
#        152029
#        175931
#        203593
#        225324
#        252421
#        279379
#
# Disc length: 4055 seconds
#
# Revision: 0
# Processed by: cddbd v1.5.2PL0 Copyright (c) Steve Scherf et al.
# Submitted via: ExactAudioCopy v1.2
#
DISCID=810fd50b
DTITLE=Reverend KM Williams - We All Sing the Blues: Live in Deep Ellu
DTITLE=m
DYEAR=2016
DGENRE=Blues
TTITLE0=Dedications (Live)
TTITLE1=Is There Somethin' on Your Mind (Live)
TTITLE2=Haven't I Been Good to You (Live)
TTITLE3=Love Ya City (Live)
TTITLE4=Don't You Mess with My Baby (Live)
TTITLE5=Sittin' on Top of the World (Live)
TTITLE6=I Know His Blood Can Make Me Whole (Live)
TTITLE7=Come Back Home (Live)
TTITLE8=I Asked for Water and She Gave Me Gasoline (Live)
TTITLE9=Come and Go with Me (Live)
TTITLE10=Lola Faye (Live)
EXTD=
EXTT0=
EXTT1=
EXTT2=
EXTT3=
EXTT4=
EXTT5=
EXTT6=
EXTT7=
EXTT8=
EXTT9=
EXTT10=
PLAYORDER=
